<svg width="1200" height="630" viewBox="0 0 1200 630" fill="none" xmlns="http://www.w3.org/2000/svg">
  <defs>
    <linearGradient id="bg" x1="0" y1="0" x2="1200" y2="630" gradientUnits="userSpaceOnUse">
      <stop stop-color="#FAFAF9"/>
      <stop offset="1" stop-color="#F3F4F6"/>
    </linearGradient>
    <pattern id="grid" width="32" height="32" patternUnits="userSpaceOnUse">
      <path d="M32 0H0V32" stroke="#E7E5E4" stroke-width="1"/>
    </pattern>
  </defs>
  <rect width="1200" height="630" rx="36" fill="url(#bg)"/>
  <rect width="1200" height="630" rx="36" fill="url(#grid)" opacity="0.7"/>
  <rect x="62" y="58" width="1076" height="514" rx="28" fill="#FFFFFF" stroke="#E7E5E4" stroke-width="2"/>

  <rect x="104" y="102" width="208" height="168" rx="24" fill="#EEF2FF" stroke="#C7D2FE"/>
  <rect x="334" y="102" width="250" height="76" rx="20" fill="#FEF2F2" stroke="#FECACA"/>
  <rect x="334" y="194" width="250" height="76" rx="20" fill="#ECFDF5" stroke="#A7F3D0"/>
  <rect x="606" y="102" width="252" height="168" rx="24" fill="#F8FAFC" stroke="#CBD5E1"/>
  <rect x="640" y="138" width="184" height="10" rx="5" fill="#CBD5E1"/>
  <rect x="640" y="168" width="156" height="10" rx="5" fill="#E2E8F0"/>
  <rect x="640" y="198" width="126" height="10" rx="5" fill="#E2E8F0"/>
  <rect x="640" y="228" width="92" height="28" rx="14" fill="#2563EB" opacity="0.14"/>

  <text x="104" y="378" fill="#111827" font-family="system-ui, -apple-system, BlinkMacSystemFont, 'PingFang SC', 'Microsoft YaHei', sans-serif" font-size="66" font-weight="800">多窗口管理</text>
  <text x="104" y="434" fill="#6B7280" font-family="system-ui, -apple-system, BlinkMacSystemFont, 'PingFang SC', 'Microsoft YaHei', sans-serif" font-size="28" font-weight="500">把摆窗、切窗、找窗、切项目拆开看</text>

  <line x1="104" y1="480" x2="1096" y2="480" stroke="#E5E7EB" stroke-width="2"/>
  <text x="104" y="530" fill="#4B5563" font-family="system-ui, -apple-system, BlinkMacSystemFont, 'PingFang SC', 'Microsoft YaHei', sans-serif" font-size="24" font-weight="600">Mac 效率工作流专题</text>
</svg>
